HIERARCHY
ROOT Hips
{
	OFFSET 0.000000 0.000000 0.000000 
	CHANNELS 6 Xposition Yposition Zposition Zrotation Yrotation Xrotation
	JOINT LeftUpLeg
	{
		OFFSET 1.363060 -1.794630 0.839290 
		CHANNELS 3 Zrotation Yrotation Xrotation
		JOINT LeftLeg
		{
			OFFSET 2.448110 -6.726130 0.000000 
			CHANNELS 3 Zrotation Yrotation Xrotation
			JOINT LeftFoot
			{
				OFFSET 2.562200 -7.039590 0.000000 
				CHANNELS 3 Zrotation Yrotation Xrotation
				JOINT LeftToeBase
				{
					OFFSET 0.157640 -0.433110 2.322550 
					CHANNELS 3 Zrotation Yrotation Xrotation
					End Site
					{
						OFFSET 0.000000 0.000000 0.000000 
					}
				}
			}
		}
	}
	JOINT RightUpLeg
	{
		OFFSET -1.305520 -1.794630 0.839290 
		CHANNELS 3 Zrotation Yrotation Xrotation
		JOINT RightLeg
		{
			OFFSET -2.542530 -6.985550 0.000000 
			CHANNELS 3 Zrotation Yrotation Xrotation
			JOINT RightFoot
			{
				OFFSET -2.568260 -7.056230 0.000000 
				CHANNELS 3 Zrotation Yrotation Xrotation
				JOINT RightToeBase
				{
					OFFSET -0.164730 -0.452590 2.363150 
					CHANNELS 3 Zrotation Yrotation Xrotation
					End Site
					{
						OFFSET 0.000000 0.000000 0.000000 
					}
				}
			}
		}
	}
	JOINT Spine
	{
		OFFSET 0.028270 2.035590 -0.193380 
		CHANNELS 3 Zrotation Yrotation Xrotation
		JOINT Spine1
		{
			OFFSET 0.056720 2.048850 -0.042750 
			CHANNELS 3 Zrotation Yrotation Xrotation
			JOINT Neck1
			{
				OFFSET -0.054170 1.746240 0.172020 
				CHANNELS 3 Zrotation Yrotation Xrotation
				JOINT Head
				{
					OFFSET 0.104070 1.761360 -0.123970 
					CHANNELS 3 Zrotation Yrotation Xrotation
					End Site
					{
						OFFSET 0.000000 0.000000 0.000000 
					}
				}
			}
			JOINT LeftArm
			{
				OFFSET 3.362410 1.200890 -0.311210 
				CHANNELS 3 Zrotation Yrotation Xrotation
				JOINT LeftForeArm
				{
					OFFSET 4.983000 -0.000000 -0.000000 
					CHANNELS 3 Zrotation Yrotation Xrotation
					JOINT LeftHand
					{
						OFFSET 3.483560 -0.000000 -0.000000 
						CHANNELS 3 Zrotation Yrotation Xrotation
						JOINT LeftHandIndex1
						{
							OFFSET 0.715260 -0.000000 -0.000000 
							CHANNELS 3 Zrotation Yrotation Xrotation
							End Site
							{
								OFFSET 0.000000 0.000000 0.000000 
							}
						}
					}
				}
			}
			JOINT RightArm
			{
				OFFSET -3.136600 1.374050 -0.404650 
				CHANNELS 3 Zrotation Yrotation Xrotation
				JOINT RightForeArm
				{
					OFFSET -5.241900 -0.000000 -0.000000 
					CHANNELS 3 Zrotation Yrotation Xrotation
					JOINT RightHand
					{
						OFFSET -3.444170 -0.000000 -0.000000 
						CHANNELS 3 Zrotation Yrotation Xrotation
						JOINT RightHandIndex1
						{
							OFFSET -0.622530 -0.000000 -0.000000 
							CHANNELS 3 Zrotation Yrotation Xrotation
							End Site
							{
								OFFSET 0.000000 0.000000 0.000000 
							}
						}
					}
				}
			}
		}
	}
}
MOTION
Frames: 12
Frame Time: 0.041667
-33.839316 18.018008 -2.851729 -19.918126 73.613782 -15.632263 1.013584 -9.782157 -19.714799 -1.849435 8.258448 22.976657 5.698293 -6.778022 23.431008 0.622600 5.049600 14.049900 15.053854 17.130732 1.647819 3.555931 -3.914888 12.496148 -3.569128 8.026372 -1.877027 -1.152900 -6.817300 19.175300 3.502178 0.307869 5.213082 1.627422 0.960780 -1.953361 0.485936 7.990104 -10.579976 -1.573800 3.566900 -3.238700 -76.829713 16.252560 35.963934 30.547373 -40.471199 -14.331681 0.706427 -1.745714 -5.860771 -7.125000 0.000000 0.000000 66.120195 -14.887082 46.009288 -25.480000 33.400937 -8.053461 0.769798 0.319436 -2.586146 7.125000 0.000000 0.000000 
-33.838492 18.019037 -2.851729 -19.880412 73.644430 -15.575476 0.987411 -9.775311 -19.737224 -1.849506 8.262881 22.980797 5.745276 -6.948220 23.139352 0.453900 4.322100 11.984800 15.024845 17.126857 1.657652 3.565344 -3.883176 12.419090 -3.542454 7.945909 -1.783697 -1.132200 -6.758000 19.000300 3.505934 0.322482 5.161958 1.636665 0.968287 -2.034619 0.458215 7.965364 -10.518921 -1.588300 3.555500 -3.224200 -76.842994 16.366964 36.024835 30.545464 -40.477571 -14.331998 0.707019 -1.745895 -5.873480 -7.125000 0.000000 0.000000 66.107883 -14.966615 45.997855 -25.463315 33.389283 -8.047958 0.773043 0.320981 -2.566238 7.125000 0.000000 0.000000 
-33.817810 18.020375 -2.854713 -19.508073 73.254112 -15.294180 0.955661 -9.601697 -19.576951 -1.820551 8.279285 23.022104 5.741642 -6.954655 22.666284 0.545800 4.733100 13.148900 15.030627 17.271928 1.817768 3.567617 -3.893715 12.443147 -3.609906 8.211719 -1.679987 -1.123300 -6.732400 18.924900 3.483646 0.492370 5.301763 1.539063 1.052902 -1.781936 0.488226 7.954080 -10.524796 -1.575900 3.548900 -3.216200 -76.847006 16.301720 36.015238 30.532337 -40.464801 -14.322290 0.707625 -1.747425 -5.871775 -7.125000 0.000000 0.000000 66.081187 -14.887729 45.971246 -25.483025 33.408274 -8.061258 0.774390 0.324165 -2.578141 7.125000 0.000000 0.000000 
-33.838184 18.018420 -2.851935 -19.893627 73.633347 -15.593866 0.988611 -9.762865 -19.719054 -1.849941 8.254411 22.957688 5.813486 -7.173897 22.750960 0.488900 4.483400 12.440800 15.037431 17.153362 1.665199 3.563588 -3.893422 12.447156 -3.524438 7.895977 -1.725148 -1.083500 -6.615900 18.582200 3.512167 0.366391 5.192824 1.624008 0.990079 -1.983013 0.524243 7.958959 -10.510694 -1.568500 3.549500 -3.219600 -76.828767 16.387382 36.111923 30.530083 -40.469273 -14.321164 0.707935 -1.748688 -5.927139 -7.125000 0.000000 0.000000 66.067021 -14.962265 45.976154 -25.510803 33.434801 -8.078181 0.775750 0.324678 -2.569759 7.125000 0.000000 0.000000 
-33.826454 18.023359 -2.852964 -19.667426 73.472896 -15.416444 0.956717 -9.686281 -19.625035 -1.845374 8.250153 22.949037 5.800706 -7.135543 22.631255 0.357600 3.841700 10.631700 15.028574 17.196254 1.717011 3.567135 -3.889508 12.436580 -3.534575 7.949481 -1.632849 -1.078500 -6.601200 18.539100 3.482171 0.467808 5.231598 1.548181 1.041386 -1.900218 0.503371 7.925949 -10.496082 -1.588400 3.531300 -3.221000 -76.782470 16.451779 36.188373 30.521092 -40.469484 -14.318463 0.709886 -1.749432 -5.915235 -7.125000 0.000000 0.000000 66.123810 -14.975826 45.881702 -25.486740 33.414540 -8.066539 0.776284 0.321923 -2.558511 7.125000 0.000000 0.000000 
-33.823573 18.025211 -2.852964 -19.609655 73.448088 -15.370407 0.946289 -9.666187 -19.594524 -1.849283 8.237805 22.918010 5.818047 -7.188872 22.509901 0.296100 3.498800 9.670600 15.029081 17.210576 1.701155 3.560677 -3.912760 12.496270 -3.531441 7.939078 -1.618656 -1.061300 -6.549900 18.388700 3.474175 0.506171 5.237938 1.524719 1.060527 -1.881286 0.509638 7.909127 -10.479405 -1.593100 3.521600 -3.219300 -76.760291 16.502602 36.250702 30.509146 -40.465470 -14.311693 0.710906 -1.750111 -5.924960 -7.125000 0.000000 0.000000 66.139808 -14.990542 45.834167 -25.481307 33.410977 -8.065394 0.777417 0.321513 -2.553463 7.125000 0.000000 0.000000 
-33.820794 18.026960 -2.852758 -19.556099 73.425716 -15.326435 0.936350 -9.648193 -19.563959 -1.854423 8.224746 22.883745 5.834465 -7.237686 22.403324 0.244000 3.178700 8.776700 15.027684 17.225226 1.709664 3.561397 -3.913112 12.497814 -3.519173 7.904422 -1.571504 -1.044000 -6.497900 18.236000 3.465704 0.543338 5.246945 1.501473 1.079402 -1.856440 0.517033 7.891922 -10.463936 -1.597600 3.511600 -3.217900 -76.737025 16.549239 36.312074 30.491843 -40.457315 -14.300955 0.711900 -1.750666 -5.931419 -7.125000 0.000000 0.000000 66.158581 -14.998813 45.781874 -25.474011 33.405414 -8.063152 0.778555 0.321028 -2.549517 7.125000 0.000000 0.000000 
-33.819148 18.028298 -2.852346 -19.524312 73.423705 -15.300672 0.927589 -9.639176 -19.545880 -1.858492 8.215659 22.860630 5.853731 -7.297781 22.305113 0.192200 2.823500 7.787800 15.028030 17.238273 1.710595 3.560657 -3.917327 12.509256 -3.503749 7.856160 -1.537786 -1.026100 -6.443700 18.077300 3.459161 0.572181 5.250661 1.483582 1.093986 -1.840280 0.524188 7.874858 -10.447390 -1.602200 3.501700 -3.216500 -76.715906 16.597835 36.371130 30.468791 -40.444856 -14.286010 0.712821 -1.751023 -5.936972 -7.125000 0.000000 0.000000 66.178539 -15.007681 45.727180 -25.465533 33.398725 -8.060405 0.779683 0.320562 -2.544166 7.125000 0.000000 0.000000 
-33.816884 18.029327 -2.851935 -19.472882 73.415289 -15.259245 0.914340 -9.627685 -19.525708 -1.861039 8.209949 22.845352 5.872408 -7.358633 22.194294 0.148600 2.484000 6.845300 15.025575 17.252967 1.720777 3.559892 -3.920684 12.519069 -3.490388 7.814609 -1.506602 -1.008500 -6.389800 17.919800 3.451547 0.602865 5.259019 1.465501 1.109707 -1.815712 0.530232 7.856764 -10.430316 -1.606900 3.491300 -3.214100 -76.698418 16.640388 36.423167 30.439007 -40.426985 -14.266084 0.713671 -1.751370 -5.938343 -7.125000 0.000000 0.000000 66.198614 -15.012271 45.669806 -25.457618 33.392531 -8.057950 0.780775 0.320252 -2.540208 7.125000 0.000000 0.000000 
-33.815444 18.029944 -2.851317 -19.441923 73.417916 -15.236549 0.903738 -9.621661 -19.511250 -1.862920 8.205941 22.834685 5.894065 -7.429831 22.077936 0.114000 2.177400 5.996100 15.026458 17.266990 1.732282 3.559224 -3.923470 12.527324 -3.474933 7.765559 -1.480522 -0.990100 -6.332900 17.753500 3.445948 0.627966 5.265940 1.450748 1.122563 -1.794668 0.536853 7.839622 -10.413254 -1.610900 3.481500 -3.211300 -76.685547 16.679650 36.467200 30.403820 -40.404644 -14.242180 0.714469 -1.751791 -5.936037 -7.125000 0.000000 0.000000 66.217632 -15.015339 45.612849 -25.450781 33.387153 -8.056004 0.781884 0.319913 -2.537058 7.125000 0.000000 0.000000 
-33.815032 18.030047 -2.850494 -19.437623 73.440366 -15.237015 0.895789 -9.625156 -19.506216 -1.865171 8.203164 22.827023 5.919983 -7.514746 21.965995 0.086400 1.895500 5.217000 15.029074 17.276865 1.743553 3.558703 -3.924938 12.532653 -3.456593 7.705351 -1.463681 -0.970400 -6.271600 17.574400 3.442956 0.644102 5.269684 1.441277 1.131007 -1.780038 0.544612 7.822643 -10.397578 -1.614000 3.471900 -3.208700 -76.677876 16.715871 36.502631 30.364499 -40.379006 -14.215311 0.715233 -1.752218 -5.930867 -7.125000 0.000000 0.000000 66.235028 -15.017055 45.555788 -25.445307 33.382896 -8.054941 0.782953 0.319600 -2.533991 7.125000 0.000000 0.000000 
-33.814621 18.030047 -2.849568 -19.432443 73.461716 -15.238207 0.887364 -9.626602 -19.501616 -1.866611 8.201689 22.823011 5.946060 -7.600599 21.853368 0.061800 1.603900 4.412200 15.032008 17.284454 1.755841 3.558148 -3.925985 12.536705 -3.439303 7.649196 -1.447283 -0.950900 -6.210000 17.395100 3.439655 0.660824 5.273544 1.430888 1.139754 -1.766212 0.551974 7.806284 -10.384760 -1.617100 3.462500 -3.207100 -76.672344 16.748165 36.531752 30.318706 -40.348005 -14.183655 0.715934 -1.752675 -5.922809 -7.125000 0.000000 0.000000 66.255051 -15.019360 45.496715 -25.440019 33.378632 -8.053733 0.783916 0.319155 -2.530079 7.125000 0.000000 0.000000 
